<svg xmlns="http://www.w3.org/2000/svg" width="1332.199" height="1135.825" viewBox="0 0 1332.199 1135.825">
  <g id="Lokal-Logo-No-Space-2" transform="translate(-0.7 1137)">
    <path id="Path_23" data-name="Path 23" d="M212.3-1135a93.638,93.638,0,0,0-64.5,59.3c-8.4,23.8-7.2,48.8,3.5,70.9,5.7,11.8,392,653.9,392.8,653,.4-.4,25.1-41.3,54.9-90.9l54.2-90.2L541.3-719.2C479.7-821.7,428.5-907.1,427.5-909a31.422,31.422,0,0,1-2.3-9.6,29.136,29.136,0,0,1,14.9-27.9l5.4-3,416.8-.3c350.9-.2,416.8-.4,416.5-1.6-.2-.7-22.3-42.8-49.3-93.5l-49-92.1-480.5.1C233.5-1136.9,219.3-1136.8,212.3-1135Z" fill="#2bb695"/>
    <path id="Path_24" data-name="Path 24" d="M102.7-1005.8C97.9-998.1.7-821.6.7-820.6c0,1.1,459.9,770.3,465.5,778.4C477.7-25.5,497.6-11.7,518.5-6c11.9,3.3,30.2,3.8,42.5,1.2a92.144,92.144,0,0,0,53.5-32.1c4.1-5.1,393.5-651,393.5-652.7,0-.2-49.2-.4-109.3-.4H789.4L678.9-506.3C618.2-405.2,566.7-320.5,564.5-318.2c-5.3,5.9-10.6,8.4-18.6,9-9.5.7-16-1.7-22.4-8.2-3.8-4-52-82.9-208-341.1C203.9-843.3,110.7-997.6,108.3-1001.3,104.2-1008.1,104.1-1008.1,102.7-1005.8Z" fill="#bc1e51"/>
    <path id="Path_25" data-name="Path 25" d="M466.9-912.3c.5,1,25.9,43.2,56.4,93.8l55.3,92,224.5.5,224.4.5,4.6,2.1c12.7,5.9,19.2,19.7,16.2,34.5-.3,1.9-93.1,157.3-206,345.4L637-1.5l109.2.3c60,.1,109.5-.1,109.9-.5,1.6-1.6,463.3-770.1,466.6-776.6,18.9-37.3,11.1-80.9-19.8-110.3a121.225,121.225,0,0,0-11.2-9.3c-7.2-4.9-20.3-10.8-29.8-13.3l-8.4-2.3-393.8-.2C484-914,466-913.9,466.9-912.3Z" fill="#efb815"/>
  </g>
</svg>
